# xmcd CD database file
#
# Track frame offsets:
#	150
#	15537
#	29751
#	43245
#	55398
#	66273
#	82324
#	95811
#	111837
#	127362
#	143826
#	161386
#	177049
#
# Disc length: 2549 seconds
#
# Revision: 3
# Processed by: cddbd v1.5.2PL0 Copyright (c) Steve Scherf et al.
# Submitted via: CDex 1.70beta2
#
DISCID=c309f30d
DTITLE=Chuck Allen Floyd - Tonight An Angel Fell
DYEAR=2008
DGENRE=Country
TTITLE0=The Right Girl
TTITLE1=Good Morning Houston
TTITLE2=I'm Not That Drunk Yet
TTITLE3=Forget Her Pill
TTITLE4=She's Gone And She's Never Coming Back
TTITLE5=I Ain't No Cowboy
TTITLE6=Stay With Me
TTITLE7=Livin' Like Rock Stars (in a honky tonk band)
TTITLE8=Two Words
TTITLE9=Every Heart Oughtta Have One
TTITLE10=She's Gettin' Even
TTITLE11=Tonight An Angel Fell
TTITLE12=Mean Old Texas
EXTD=YEAR: 2008
EXTT0=
EXTT1=
EXTT2=
EXTT3=
EXTT4=
EXTT5=
EXTT6=
EXTT7=
EXTT8=
EXTT9=
EXTT10=
EXTT11=
EXTT12=
PLAYORDER=
